<svg width="21" height="18" viewBox="0 0 21 18" fill="none" xmlns="http://www.w3.org/2000/svg">
<path d="M2.14802 7.81005C7.39539 5.52385 10.8945 4.01665 12.6452 3.28845C17.644 1.20928 18.6827 0.848106 19.3597 0.836053C19.5086 0.833557 19.8416 0.87046 20.0572 1.04545C20.2393 1.19322 20.2894 1.39282 20.3134 1.53292C20.3374 1.67301 20.3672 1.99215 20.3435 2.24152C20.0726 5.08774 18.9005 11.9948 18.3042 15.1826C18.0519 16.5315 17.555 16.9838 17.0741 17.028C16.0288 17.1242 15.235 16.3372 14.2226 15.6736C12.6384 14.6351 11.7434 13.9886 10.2056 12.9753C8.42844 11.8041 9.5805 11.1605 10.5933 10.1085C10.8584 9.83322 15.4639 5.64409 15.5531 5.26407C15.5642 5.21654 15.5746 5.03938 15.4693 4.94583C15.3641 4.85228 15.2087 4.88427 15.0966 4.90971C14.9378 4.94578 12.4069 6.61856 7.50414 9.92808C6.78577 10.4214 6.1351 10.6617 5.55211 10.6491C4.90942 10.6352 3.67314 10.2857 2.75409 9.98698C1.62684 9.62055 0.730921 9.42682 0.808935 8.80452C0.84957 8.48039 1.29593 8.1489 2.14802 7.81005Z" fill="white"/>
</svg>
