<svg width="21" height="24" viewBox="0 0 21 24" fill="none" xmlns="http://www.w3.org/2000/svg">
<path d="M10.5012 0C7.02735 0 4.20117 2.8388 4.20117 6.32812C4.20117 9.81745 7.02735 12.6562 10.5012 12.6562C13.975 12.6562 16.8012 9.81745 16.8012 6.32812C16.8012 2.8388 13.975 0 10.5012 0Z" fill="#E3E3E3"/>
<path d="M18.3384 16.7904C16.6136 15.0313 14.3271 14.0625 11.9 14.0625H9.1C6.67296 14.0625 4.38639 15.0313 2.66159 16.7904C0.945233 18.5409 0 20.8515 0 23.2969C0 23.6852 0.313413 24 0.7 24H20.3C20.6866 24 21 23.6852 21 23.2969C21 20.8515 20.0548 18.5409 18.3384 16.7904Z" fill="#E3E3E3"/>
</svg>
