<svg width="20" height="22" viewBox="0 0 20 22" fill="none" xmlns="http://www.w3.org/2000/svg">
<path d="M19.7957 12.6421C20.4466 7.16294 19.483 3.70384 17.7448 2.13929L17.7457 2.13838C14.9402 -0.533449 5.46565 -0.928905 2.10928 2.25838C0.601999 3.81748 0.071088 6.10567 0.012906 8.93841C-0.045276 11.7721 -0.114367 17.0803 4.83201 18.5203H4.83656L4.83201 20.7194C4.83201 20.7194 4.79838 21.6103 5.36747 21.7894C6.01838 22.0003 6.31293 21.5866 8.33748 19.1684C11.7229 19.4621 14.323 18.7894 14.6184 18.6912C15.302 18.4621 19.1702 17.9503 19.7957 12.6421ZM8.67112 17.6212C8.67112 17.6212 6.52838 20.293 5.86202 20.9866C5.64383 21.2121 5.40474 21.1912 5.40838 20.7439C5.40838 20.4503 5.42474 17.093 5.42474 17.093C1.23109 15.8912 1.47837 11.3711 1.52382 9.00659C1.56927 6.64112 2.002 4.70384 3.27837 3.39929C6.22293 0.638374 14.5293 1.25565 16.6457 3.24475C19.233 5.53839 18.3121 12.0184 18.3175 12.2393C17.7857 16.6703 14.6511 16.9512 14.0748 17.143C13.8284 17.2248 11.542 17.813 8.67112 17.6212Z" fill="white"/>
<path d="M9.85772 3.91846C9.50771 3.91846 9.50771 4.46391 9.85772 4.46846C12.5732 4.48937 14.8096 6.3821 14.8341 9.85393C14.8341 10.2203 15.3705 10.2158 15.3659 9.84939H15.365C15.3359 6.10846 12.8941 3.93937 9.85772 3.91846Z" fill="white"/>
<path d="M13.4295 9.27817C13.4213 9.63999 13.9568 9.65726 13.9613 9.2909C14.0059 7.22817 12.734 5.52907 10.344 5.34998C9.99402 5.32452 9.95766 5.87453 10.3067 5.89998C12.3795 6.05725 13.4713 7.4718 13.4295 9.27817Z" fill="white"/>
<path d="M12.8552 11.6246C12.4062 11.3646 11.9489 11.5264 11.7598 11.7819L11.3643 12.2937C11.1634 12.5537 10.788 12.5192 10.788 12.5192C8.04796 11.7946 7.31523 8.92733 7.31523 8.92733C7.31523 8.92733 7.2816 8.53915 7.53251 8.33096L8.02705 7.92187C8.27433 7.72551 8.43069 7.25278 8.17887 6.78823C7.50614 5.57277 7.05432 5.15368 6.82432 4.83186C6.5825 4.52913 6.21886 4.46095 5.84068 4.66549H5.8325C5.04613 5.1255 4.18522 5.98641 4.46068 6.87278C4.93068 7.80732 5.79432 10.7864 8.54705 13.0373C9.84069 14.1019 11.888 15.1928 12.7571 15.4446L12.7652 15.4574C13.6216 15.7428 14.4543 14.8483 14.8989 14.0383V14.0319C15.0962 13.6401 15.0307 13.2692 14.7425 13.0264C14.2316 12.5283 13.4607 11.9782 12.8552 11.6246Z" fill="white"/>
<path d="M10.7176 7.3792C11.5912 7.43011 12.0149 7.88647 12.0603 8.82375C12.0767 9.19011 12.6085 9.16466 12.5922 8.79829C12.534 7.57465 11.8958 6.89283 10.7467 6.82919C10.3967 6.80829 10.364 7.35829 10.7176 7.3792Z" fill="white"/>
</svg>
