<svg width="20" height="21" viewBox="0 0 20 21" fill="none" xmlns="http://www.w3.org/2000/svg">
<path fill-rule="evenodd" clip-rule="evenodd" d="M17.086 2.92047C15.2059 1.03817 12.7056 0.00110391 10.0418 0C4.55291 0 0.0857374 4.46705 0.0835296 9.95744C0.0827937 11.7125 0.541286 13.4258 1.41277 14.936L0 20.0962L5.27905 18.7114C6.73364 19.5048 8.37123 19.923 10.0378 19.9235H10.0419C15.5302 19.9235 19.9979 15.456 20 9.96541C20.0011 7.30448 18.9662 4.80264 17.086 2.92047ZM10.0418 18.2417H10.0384C8.55326 18.2411 7.0967 17.842 5.82573 17.088L5.52362 16.9085L2.39096 17.7304L3.22711 14.6761L3.03025 14.3629C2.2017 13.0451 1.76418 11.5219 1.76492 9.95805C1.76663 5.39459 5.47971 1.68188 10.0451 1.68188C12.2559 1.68261 14.3341 2.54465 15.8967 4.10914C17.4594 5.67363 18.3195 7.75316 18.3187 9.9648C18.3168 14.5286 14.6039 18.2417 10.0418 18.2417ZM14.5819 12.0427C14.3331 11.9181 13.1097 11.3164 12.8816 11.2332C12.6537 11.1502 12.4876 11.1088 12.3219 11.3578C12.1559 11.6068 11.6792 12.1674 11.534 12.3333C11.3887 12.4994 11.2437 12.5202 10.9949 12.3956C10.746 12.2711 9.94431 12.0083 8.99384 11.1606C8.25422 10.5008 7.75488 9.686 7.60966 9.437C7.46467 9.18776 7.60843 9.06609 7.71882 8.9292C7.98818 8.59472 8.2579 8.24404 8.34082 8.07808C8.42385 7.91201 8.38227 7.76666 8.31996 7.64216C8.2579 7.51766 7.76028 6.29293 7.55299 5.79457C7.35085 5.30959 7.14589 5.37509 6.99306 5.36748C6.84808 5.36024 6.68212 5.35877 6.51617 5.35877C6.35033 5.35877 6.08073 5.42096 5.85259 5.6702C5.62457 5.91932 4.98185 6.5212 4.98185 7.74593C4.98185 8.97066 5.87344 10.1538 5.99782 10.3199C6.12219 10.486 7.75243 12.9992 10.2484 14.0769C10.842 14.3335 11.3054 14.4864 11.6669 14.6011C12.263 14.7905 12.8053 14.7638 13.2341 14.6997C13.7122 14.6282 14.7061 14.0977 14.9136 13.5166C15.1209 12.9353 15.1209 12.4372 15.0586 12.3333C14.9966 12.2295 14.8306 12.1674 14.5819 12.0427Z" fill="white"/>
</svg>
